<svg xmlns="http://www.w3.org/2000/svg" viewBox="0 0 4923.97 710.4"><defs><style>.cls-1,.cls-6{fill:#fff;}.cls-2{fill:#ffb700;}.cls-3{fill:#ffd234;}.cls-4,.cls-5,.cls-6,.cls-7{fill-rule:evenodd;}.cls-5{fill:#32c7e7;}.cls-7{fill:#f6f6f6;}</style></defs><title>Logo</title><g id="Layer_1" data-name="Layer 1"><path class="cls-1" d="M741.86,658.2a6.28,6.28,0,1,1-6.35,6.28A6.3,6.3,0,0,1,741.86,658.2Z" transform="translate(-35.46 -35)"/><path class="cls-1" d="M337.5,470a4.35,4.35,0,1,1-4.39,4.32A4.36,4.36,0,0,1,337.5,470Z" transform="translate(-35.46 -35)"/><path class="cls-1" d="M201.2,433.67a7.08,7.08,0,1,1-7.16,7.09A7.14,7.14,0,0,1,201.2,433.67Z" transform="translate(-35.46 -35)"/><path class="cls-1" d="M232.45,281.8a8.37,8.37,0,1,1-8.44,8.38A8.44,8.44,0,0,1,232.45,281.8Z" transform="translate(-35.46 -35)"/><path class="cls-1" d="M652.68,54.82a22.85,22.85,0,1,1-23,22.84A23,23,0,0,1,652.68,54.82Z" transform="translate(-35.46 -35)"/><path class="cls-1" d="M3579.87,364.4a16.09,16.09,0,1,0-16.22-16.07A16.18,16.18,0,0,0,3579.87,364.4Z" transform="translate(-35.46 -35)"/><path class="cls-1" d="M2277.37,364.4a16.09,16.09,0,1,0-16.22-16.07A16.18,16.18,0,0,0,2277.37,364.4Z" transform="translate(-35.46 -35)"/><path class="cls-1" d="M2449.51,563.05a23.69,23.69,0,1,0-23.88-23.69A23.8,23.8,0,0,0,2449.51,563.05Z" transform="translate(-35.46 -35)"/><path class="cls-1" d="M4326.05,190.26a20.76,20.76,0,1,0-20.91-20.75A20.85,20.85,0,0,0,4326.05,190.26Z" transform="translate(-35.46 -35)"/><path class="cls-2" d="M1120.52,608.84l2.65-416.17c-.64-.45-1.26-.91-1.91-1.34-476.43-422.58-975.4,145.41-975.4,145.41l68.59,76.65-179-1.28s557.68,593.32,1083.13,196.7Z" transform="translate(-35.46 -35)"/><path class="cls-3" d="M1119.07,535.58l1.75-275c-.49-.29-1-.58-1.45-.89-364-279.55-744.54,95.36-744.54,95.36l52.42,50.72-136.66-1s426.12,392.44,827,130.77Z" transform="translate(-35.46 -35)"/><path class="cls-4" d="M4292.87,705.8,4959,382.14,4290.78,74.59H1208.2c-88.19.22-160.16,87.9-159.74,180.88l.8,282c.29,93,72.74,168.92,161,168.35Z" transform="translate(-35.46 -35)"/><path class="cls-4" d="M4292.87,705.8,4959,382.14l-693.68,2.53-3216.5,11.8.4,141c.29,93,72.74,168.92,161,168.35Z" transform="translate(-35.46 -35)"/><path class="cls-5" d="M4292.87,705.8,4959,382.14,4290.78,74.59H1444.43c-34.53,218.47-32.29,434.84,2.06,631.21Z" transform="translate(-35.46 -35)"/><path class="cls-5" d="M4292.87,705.8,4959,382.14l-693.68,2.53L1419.69,395.13a1799,1799,0,0,0,26.8,310.67Z" transform="translate(-35.46 -35)"/><path class="cls-6" d="M4292.87,705.8,4959,382.14,4290.78,74.59H1632c-36.84,219.87-34.56,436.14,2.14,631.21Z" transform="translate(-35.46 -35)"/><path class="cls-7" d="M4271.49,705.8l661-321.9-688.37,2.66-2639,9.57c0,105.68,9.58,210.09,28.46,309.67Z" transform="translate(-35.46 -35)"/><path class="cls-5" d="M4292.87,705.8,4959,382.14,4290.78,74.59a1797,1797,0,0,0-25.42,310.08C4265.56,492.39,4275.23,607.36,4292.87,705.8Z" transform="translate(-35.46 -35)"/><path class="cls-5" d="M4292.87,705.8,4959,382.14l-693.68,2.53C4265.5,492.31,4275.23,607.36,4292.87,705.8Z" transform="translate(-35.46 -35)"/><path class="cls-4" d="M4731.46,492.78l228-110.72L4730.8,277a643.94,643.94,0,0,0,.66,215.83Z" transform="translate(-35.46 -35)"/><path class="cls-4" d="M4871.64,495.52" transform="translate(-35.46 -35)"/><path class="cls-4" d="M5153,1127" transform="translate(-35.46 -35)"/><path class="cls-4" d="M4810,1419" transform="translate(-35.46 -35)"/><rect x="1687.54" y="39" width="144" height="451"/><rect x="2065.37" y="39" width="144" height="451"/><rect x="2443.21" y="39" width="144" height="451"/><rect x="2821.04" y="39" width="144" height="451"/><rect x="3198.87" y="39" width="144" height="451"/><rect x="3576.71" y="39" width="144" height="451"/><rect x="3954.54" y="39" width="144" height="451"/><rect x="1749.54" y="489" width="10" height="182"/><rect x="2132.54" y="489" width="10" height="182"/><rect x="2510.54" y="489" width="10" height="182"/><rect x="2888.54" y="489" width="10" height="182"/><rect x="3265.54" y="491" width="10" height="182"/><rect x="3643.54" y="491" width="10" height="182"/><rect x="4021.54" y="491" width="10" height="182"/></g></svg>